<svg width="600" height="600" xmlns="http://www.w3.org/2000/svg" xml:space="preserve" version="1.1">

 <g>
  <title>Layer 1</title>
  <path id="svg_22" d="m0.00001,448.74462l0.76394,0l0.23606,-0.38197l0.23606,0.38197l0.76394,0l-0.61804,0.23607l0.23608,0.38197l-0.61804,-0.23607l-0.61804,0.23607l0.23608,-0.38197l-0.61804,-0.23607z" fill="#ef4d3c"/>
  <g stroke="null" id="svg_24">
   <g stroke="null" transform="matrix(-1.61613 0.247654 -0.228945 -1.7482 748.753 467.268)" id="svg_20">
    <path stroke="null" id="svg_1" fill="#ED5564" d="m183.42891,207.85094c0,-1.45141 -0.57738,-2.84637 -1.60384,-3.87283l-15.48463,-15.48515c-2.13709,-2.14068 -5.60549,-2.14068 -7.74257,0l-49.24894,49.25356c-2.13709,2.13298 -2.13709,5.59728 0,7.73847l15.48463,15.48463c2.13709,2.13247 5.60497,2.13247 7.74206,0l49.24894,-49.25356c1.02697,-1.02594 1.60435,-2.41372 1.60435,-3.86513z"/>
    <path stroke="null" id="svg_2" fill="#CCD1D9" d="m342.14601,66.88848c0.7216,-0.72571 1.22713,-1.64387 1.45962,-2.6421l9.27815,-40.23972c0.41674,-1.84044 -0.13652,-3.76505 -1.46732,-5.10047s-3.26362,-1.88868 -5.10047,-1.46373l-40.23921,9.26994c-1.00234,0.23249 -1.9164,0.73802 -2.63851,1.46373l-140.96707,140.95937c-2.13709,2.14119 -2.13709,5.60549 0,7.74668l30.96567,30.96927c1.02646,1.02646 2.42193,1.60384 3.87283,1.60384c1.45141,0 2.84278,-0.57738 3.86923,-1.60384l140.96707,-140.96297z"/>
    <path stroke="null" id="svg_3" fill="#FFFFFF" opacity="0.2" d="m351.41595,18.90619c-1.33132,-1.33542 -3.26362,-1.88868 -5.10047,-1.46373l-40.23921,9.26994c-1.00234,0.23249 -1.9164,0.73802 -2.63851,1.46373l-140.96656,140.95937c-2.13709,2.14119 -2.13709,5.60549 0,7.74668l30.96567,30.96927c1.02646,1.02646 2.42193,1.60384 3.87283,1.60384c1.45141,0 2.84278,-0.57738 3.86923,-1.60384l140.96707,-140.96297c0.7216,-0.72571 1.22713,-1.64387 1.45962,-2.6421l9.27815,-40.23972c0.41674,-1.84095 -0.13652,-3.76556 -1.46783,-5.10047zm-3.87334,3.86923l-9.26994,40.23972l-140.96297,140.96297l-30.96927,-30.96978l140.96297,-140.95886l40.23921,-9.27405l0,0l0,0z"/>
    <path stroke="null" id="svg_4" fill="#AAB2BC" d="m177.95173,192.3663c-2.13709,-2.14119 -2.13709,-5.60497 0,-7.74617l99.17535,-99.16816c2.14119,-2.13709 5.60549,-2.13709 7.73847,0c2.14119,2.13709 2.14119,5.60549 0,7.74257l-99.17124,99.17124c-2.13709,2.13401 -5.60138,2.13401 -7.74257,0.00051z"/>
    <g stroke="null" id="svg_5">
     <path stroke="null" id="svg_6" fill="#DA4453" d="m129.89759,217.19324l46.45031,0l5.47718,-5.47718c1.02646,-1.02646 1.60384,-2.41372 1.60384,-3.86513c0,-0.55326 -0.08417,-1.09061 -0.2407,-1.60384l-42.34088,0l-10.94974,10.94615z"/>
     <path stroke="null" id="svg_7" fill="#DA4453" d="m164.07505,229.47071l-46.45441,0l-8.27171,8.27582c-0.76163,0.76163 -1.24715,1.69212 -1.46732,2.67033l45.2437,0l10.94974,-10.94615z"/>
    </g>
    <g stroke="null" id="svg_8">
     <path stroke="null" id="svg_9" fill="#FFCE54" d="m220.53332,219.46274l-69.67802,-69.677c-2.13709,-2.13709 -5.60138,-2.13709 -7.73847,0l-11.6154,11.61129c-2.13709,2.14119 -2.13709,5.60549 0,7.73847l69.67751,69.67802c1.02646,1.02646 2.41782,1.60384 3.86923,1.60384c1.45552,0 2.84688,-0.57738 3.87334,-1.60384l11.61181,-11.61181c2.13657,-2.13349 2.13657,-5.60549 0,-7.73898z"/>
     <path stroke="null" id="svg_10" fill="#FFCE54" d="m134.04345,258.17099c0,-5.84619 -2.27771,-11.34647 -6.41126,-15.48463c-8.54013,-8.54064 -22.42913,-8.54064 -30.96927,0c-4.13406,4.13765 -6.41126,9.63844 -6.41126,15.48463c0,5.84568 2.27771,11.34647 6.41126,15.48463l0,0l0,0c4.13765,4.13765 9.63485,6.41536 15.48463,6.41536s11.34698,-2.27771 15.48463,-6.41536c4.13406,-4.13765 6.41126,-9.63895 6.41126,-15.48463z"/>
    </g>
    <ellipse stroke="null" id="svg_11" fill="#F6BB42" ry="5.47667" rx="5.47307" cy="258.16842" cx="112.14756"/>
   </g>
   <g stroke="null" id="svg_21">
    <path stroke="null" id="svg_12" fill="#ef4d3c" d="m456.89157,365.7734c6.08858,126.78268 -99.70046,233.80702 -227.56059,233.80702s-241.25989,-113.61045 -228.32167,-239.56987c18.26573,-177.0018 139.27622,-188.52749 228.32167,-188.52749c54.03613,0 213.86129,-51.04238 227.56059,194.29034z"/>
    <path stroke="null" id="svg_13" fill="#8cc63e" d="m68.74474,327.90325c47.18648,-79.03336 127.86013,-55.98196 149.17015,-85.61947c0,56.80523 38.05361,28.81425 57.08042,54.33543c24.35431,32.93057 33.48718,91.38232 62.40792,102.90802c-28.15967,-65.03787 17.50466,-62.56808 -46.42541,-149.83408c34.24825,23.0514 51.75291,0 98.17832,20.5816c-40.33683,-69.15419 -103.50582,-49.39585 -103.50582,-49.39585s39.57576,-39.51668 73.06293,-18.93508c-35.00932,-55.98196 -136.23193,14.81875 -136.23193,14.81875s-41.85897,-77.38683 -131.66549,4.11632c52.51398,-23.0514 110.35547,0 110.35547,0s-95.13403,-25.52119 -132.42657,107.02434"/>
    <g stroke="null" id="svg_18" fill="#64892f">
     <path stroke="null" id="svg_14" d="m68.74474,327.90325s55.55827,-111.14066 151.45337,-101.26149c-84.47902,-41.98647 -151.45337,46.92606 -151.45337,101.26149z"/>
     <path stroke="null" id="svg_15" d="m90.81583,220.87891s70.01864,-56.80523 131.66549,0c-18.26573,-69.15419 -111.87762,-37.04689 -131.66549,0"/>
     <path stroke="null" id="svg_16" d="m237.70277,228.28828c92.85081,46.10279 61.64685,98.7917 99.70046,172.88547c-25.87646,-61.74481 38.05361,-172.88547 -99.70046,-172.88547"/>
     <path stroke="null" id="svg_17" d="m201.1713,220.87891s21.31002,-34.57709 28.92074,-77.38683c0.76107,-5.76285 23.59324,-4.93958 22.83217,0.82326c-7.61072,55.1587 12.93823,85.61947 12.93823,85.61947s-15.98252,5.76285 -35.77039,5.76285c-19.78788,0.82326 -28.92074,-14.81875 -28.92074,-14.81875"/>
    </g>
    <ellipse stroke="null" id="svg_19" fill="#8cc63e" ry="4.93958" rx="11.41608" cy="143.49207" cx="241.50813"/>
   </g>
  </g>
 </g>
</svg>